<svg width="242" height="242" viewBox="0 0 242 242" fill="none" xmlns="http://www.w3.org/2000/svg">
<rect width="242" height="242" fill="#77C1C4"/>
<path d="M198.658 120.833C198.658 123.294 198.547 125.73 198.315 128.13C194.86 165.328 165.216 194.937 127.993 198.323C125.635 198.546 123.252 198.658 120.834 198.658C118.793 198.658 116.778 198.581 114.78 198.427V143.711H127.993V184.724C157.731 181.44 181.354 157.859 184.716 128.13H43.3433C43.1116 125.73 43 123.294 43 120.833C43 118.844 43.0772 116.872 43.2233 114.917C45.7527 81.2262 69.7364 53.521 101.54 45.4095L104.902 58.529C78.9456 65.1484 59.3092 87.5547 56.8142 114.917H198.435C198.581 116.872 198.658 118.844 198.658 120.833Z" fill="white"/>
<path d="M194.723 96.3525L181.809 100.391C173.998 77.0762 153.186 59.7294 127.994 56.9427V99.4737H114.78V43.2318C114.9 43.223 115.02 43.2146 115.14 43.2058C117.018 43.0689 118.922 43.0001 120.834 43.0001C123.252 43.0001 125.636 43.1117 127.994 43.3346C159.266 46.1813 185.188 67.5324 194.723 96.3525Z" fill="white"/>
</svg>
