<svg width="242" height="242" viewBox="0 0 242 242" fill="none" xmlns="http://www.w3.org/2000/svg">
<rect width="242" height="242" rx="121" fill="#33BFC9"/>
<path d="M195.658 120.833C195.658 123.199 195.551 125.541 195.328 127.849C192.006 163.613 163.505 192.08 127.717 195.336C125.45 195.551 123.158 195.658 120.833 195.658C118.871 195.658 116.934 195.584 115.013 195.436V142.829H127.717V182.261C156.308 179.103 179.021 156.432 182.253 127.849H46.3301C46.1073 125.541 46 123.199 46 120.833C46 118.921 46.0742 117.024 46.2147 115.144C48.6466 82.7528 71.7058 56.1155 102.283 48.3166L105.516 60.9304C80.56 67.2946 61.6805 88.8373 59.2817 115.144H195.444C195.584 117.024 195.658 118.921 195.658 120.833Z" fill="white"/>
<path d="M191.875 97.296L179.459 101.179C171.949 78.7627 151.939 62.0846 127.718 59.4053V100.297H115.014V46.2229C115.129 46.2144 115.245 46.2064 115.36 46.1979C117.165 46.0663 118.996 46.0001 120.834 46.0001C123.159 46.0001 125.451 46.1075 127.718 46.3218C157.785 49.0588 182.707 69.5869 191.875 97.296Z" fill="white"/>
</svg>
